<svg width="183" height="64" viewBox="0 0 183 64" fill="none" xmlns="http://www.w3.org/2000/svg">
<g clip-path="url(#clip0_2019_27092)">
<path d="M0.0155603 23.1182V12.9131C0.0155603 10.3247 1.02563 9.32015 3.56616 9.31079H4.18567C6.96861 9.31079 7.9566 10.3385 7.96037 13.2342V29.6064C7.94337 30.7047 8.03214 31.8021 8.22541 32.8827C8.93919 36.5538 11.1883 38.39 15.0028 38.3569C18.6747 38.325 20.9992 36.4024 21.6289 32.8496C21.8177 31.8099 21.9124 30.7547 21.9117 29.6972V13.0723C21.9117 10.3511 22.9218 9.33227 25.5922 9.32731H26.71C28.5997 9.36421 29.8161 10.3186 29.8113 12.2043C29.8113 19.3033 30.287 26.4292 29.5823 33.5006C28.8869 40.4894 24.2319 44.8804 17.3602 45.3854C14.8874 45.644 12.3902 45.5061 9.95896 44.9767C4.57192 43.6324 1.15276 39.8649 0.308615 34.2254C-0.278573 30.2948 0.187946 26.3532 0.0155603 23.1182Z" fill="#3EFAF4"/>
<path d="M43.0526 41.8352C42.5273 44.7491 40.2562 46.0109 37.2534 44.8406C36.8414 44.692 36.4724 44.4404 36.1799 44.1086C35.8874 43.7768 35.6809 43.3754 35.5791 42.9411C35.413 42.2413 35.336 41.5225 35.3502 40.8026C35.3502 30.2489 35.3863 19.649 35.3232 9.07219C35.3232 7.69537 35.8889 7.28727 36.9932 7.08956C40.5487 6.46118 42.7832 8.28245 42.9631 12.137C43.0887 14.8907 43.0036 17.6443 43.0305 20.398C42.9546 20.8064 42.9887 21.2283 43.1291 21.6184C47.694 16.837 53.6634 16.1111 58.4821 19.8197C59.775 20.8182 60.8602 22.0703 61.6742 23.5026C62.4882 24.935 63.0146 26.5188 63.2227 28.1617C63.9451 32.7735 63.5233 37.1832 60.6553 41.0603C59.087 43.1061 56.9094 44.5738 54.4522 45.2412C51.995 45.9086 49.392 45.7393 47.0374 44.7591C46.238 44.4155 45.4935 43.9514 44.8287 43.3822L43.0526 41.8352ZM43.0256 31.2816C43.0887 32.415 42.8818 33.5759 43.1425 34.6911C43.7529 37.3666 45.9745 39.2341 48.8566 39.5095C50.2238 39.6673 51.6043 39.3675 52.7907 38.6551C53.9772 37.9427 54.9057 36.8562 55.4368 35.5585C56.1113 33.9633 56.3471 32.2101 56.1188 30.4879C55.7374 27.5239 54.4763 25.1056 51.4822 24.2245C50.2177 23.7919 48.857 23.7474 47.5681 24.0964C46.2792 24.4454 45.1184 25.1727 44.2291 26.1884C42.8107 27.6935 42.9949 29.4928 43.0262 31.3003L43.0256 31.2816Z" fill="#3EFAF4"/>
<path d="M88.9653 33.0759V40.9359C88.9653 44.5565 86.3532 46.2588 83.0762 44.7861C82.6896 44.6282 82.3472 44.3751 82.0794 44.0493C81.8115 43.7235 81.6266 43.3351 81.5409 42.9186C81.3932 42.2592 81.3165 41.5854 81.312 40.909C81.312 30.2082 81.2999 19.5013 81.2759 8.78807C81.2759 7.72791 81.626 7.28732 82.5822 7.04005C86.2853 6.07186 88.8258 8.05394 88.9244 12.239C89.0321 16.7632 88.9605 21.288 88.9648 25.8167V29.4879C89.3866 29.0291 89.6651 28.74 89.9027 28.4327C92.1065 25.5788 94.3012 22.7106 96.5099 19.8611C98.4352 17.3784 101.478 17.1074 103.691 19.1683C104.414 19.8429 104.589 20.4118 103.866 21.293C101.528 24.1425 99.2971 27.0883 96.971 29.9516C96.3833 30.6764 96.3919 31.1494 96.971 31.8742C99.6645 35.1461 102.236 38.505 104.944 41.7582C105.711 42.6757 105.393 43.2176 104.706 43.8322C102.376 45.87 99.3467 45.5803 97.3584 43.1213C94.8537 40.0283 92.3507 36.9325 89.8493 33.8337C89.643 33.5716 89.4916 33.1998 88.9653 33.0759Z" fill="#3EFAF4"/>
<path d="M124.541 41.2984C122.998 43.43 120.698 44.8557 118.136 45.2675C116.216 45.6167 114.247 45.5604 112.35 45.1023C110.951 44.7669 109.683 44.0127 108.706 42.9362C107.728 41.8598 107.088 40.5098 106.865 39.0591C106.416 35.503 107.722 32.7174 110.667 31.0735C113.184 29.6647 115.958 29.1878 118.747 28.9168C120.349 28.7609 121.961 28.6871 123.572 28.6596C124.308 28.6596 124.47 28.4255 124.371 27.6914C123.922 24.7687 121.615 23.2173 118.267 23.6303C115.96 23.9151 114.102 24.9245 112.926 27.0581C112.791 27.3015 112.701 27.5994 112.333 27.6226C111.631 27.6938 110.922 27.6102 110.253 27.3775C109.585 27.1447 108.974 26.7682 108.46 26.2733C107.486 25.3233 107.652 24.1029 107.984 22.9463C108.496 21.157 109.834 20.0737 111.364 19.2751C114.475 17.6185 117.845 17.4026 121.261 17.6141C122.707 17.6869 124.138 17.9522 125.517 18.4033C127.315 18.9498 128.901 20.0585 130.051 21.5737C131.202 23.0889 131.859 24.9344 131.931 26.851C132.2 30.5679 132.007 34.2892 132.065 38.0061C132.131 39.2735 132.122 40.5437 132.039 41.81C131.917 42.9847 132.847 44.6226 130.773 45.1001C128.326 45.6646 126.172 44.9717 125.229 43.1593C124.97 42.5506 124.74 41.9287 124.542 41.2962L124.541 41.2984ZM117.871 40.3808C122.023 40.3808 124.605 37.6916 124.443 33.8651C124.443 33.4752 124.582 32.9476 123.9 32.9751C121.207 33.0346 118.513 33.0759 116.032 34.26C115.391 34.513 114.85 34.9765 114.494 35.5777C114.138 36.179 113.988 36.8839 114.066 37.582C114.237 38.9588 115.292 39.9865 116.809 40.2894C117.161 40.3415 117.517 40.366 117.873 40.3627L117.871 40.3808Z" fill="#3EFAF4"/>
<path d="M172.531 33.6277C169.762 33.6277 166.988 33.6553 164.219 33.6277C163.366 33.6277 163.141 33.8023 163.402 34.7061C164.197 37.409 166.544 39.2947 169.897 39.515C172.998 39.726 175.835 39.0563 177.796 36.2756C177.903 36.0986 178.066 35.964 178.257 35.894C178.449 35.8239 178.658 35.8226 178.851 35.8901C181.391 36.4089 182.504 38.8129 181.226 41.1072C180.516 42.3689 179.424 43.3608 178.115 43.9336C172.693 46.37 167.244 46.517 162.087 43.3371C157.392 40.4463 155.924 35.7431 156.337 30.4428C157.262 18.6181 169.129 14.7817 176.984 19.3979C181.527 22.0734 183.147 26.4737 182.99 31.6451C182.94 33.2053 182.411 33.6277 180.867 33.6365C178.075 33.6398 175.301 33.6277 172.531 33.6277ZM169.582 29.1172H174.52C176.028 29.1172 176.127 28.9795 175.723 27.438C174.915 24.3639 172.581 22.8036 169.111 23.0377C166.418 23.2211 163.666 25.7914 163.276 28.4707C163.177 29.1866 163.55 29.1178 163.976 29.1178L169.582 29.1172Z" fill="#3EFAF4"/>
<path d="M139.128 31.3592C139.128 29.3721 139.074 27.3807 139.155 25.3937C139.191 24.4211 138.876 24.2008 137.97 24.2008C135.658 24.2008 134.734 23.3521 134.698 21.3606C134.657 19.2591 135.595 18.1488 137.682 18.2314C138.908 18.2727 139.249 17.8965 139.159 16.6849C139.012 15.55 139.073 14.397 139.338 13.2847C139.406 12.931 139.547 12.5961 139.751 12.3025C139.955 12.009 140.219 11.7634 140.524 11.5824C141.241 11.2015 142.035 10.9973 142.843 10.9861C143.651 10.9749 144.451 11.157 145.178 11.518C146.525 12.1739 146.637 13.5557 146.619 14.9138C146.619 15.6754 146.659 16.4421 146.619 17.2081C146.579 17.9742 146.83 18.2496 147.597 18.2176C148.944 18.1625 150.246 18.1719 151.565 18.2176C153.311 18.2727 154.173 19.1351 154.258 20.8611C154.362 22.8845 153.621 23.9816 151.83 24.1606C150.429 24.2715 149.023 24.293 147.62 24.225C146.83 24.225 146.534 24.4222 146.547 25.2802C146.588 28.8732 146.547 32.4662 146.547 36.0591C146.547 37.3853 146.799 38.6608 148.105 39.271C149.537 39.9363 150.852 39.4869 152.01 38.4862C153.006 37.6238 153.357 37.6788 154.048 38.8398C154.557 39.7297 154.7 40.7891 154.448 41.7871C154.196 42.7851 153.568 43.6405 152.701 44.167C149.671 46.1816 146.417 46.099 143.212 44.7409C140.249 43.4791 139.352 40.7205 139.172 37.7157C139.046 35.6097 139.149 33.4894 139.149 31.379L139.128 31.3592Z" fill="#3EFAF4"/>
<path d="M75.5537 31.4799V41.2537C75.5537 42.6305 75.3829 44.0713 73.9559 44.6996C73.2044 45.067 72.3765 45.2411 71.5441 45.2067C70.7118 45.1724 69.9003 44.9306 69.1803 44.5025C68.1077 43.851 67.9143 42.6394 67.9057 41.4834C67.8788 34.8419 67.8788 28.199 67.9057 21.5546C67.9057 20.2103 68.2063 18.8472 69.5757 18.2601C70.3101 17.9076 71.1171 17.7423 71.9277 17.7783C72.7383 17.8142 73.5283 18.0504 74.2301 18.4666C75.3522 19.1501 75.5407 20.3617 75.545 21.5821C75.5628 24.8799 75.5537 28.1793 75.5537 31.4799Z" fill="#3EFAF4"/>
<path d="M76.8325 5.39224C76.8493 6.23038 76.6412 7.05721 76.2308 7.78297C75.0725 9.96717 73.9235 12.1607 72.7389 14.3312C72.1194 15.4646 71.3566 15.4646 70.7327 14.3312C69.5072 12.0825 68.2773 9.84326 67.1418 7.54891C66.7927 6.83603 66.6076 6.05103 66.6005 5.25385C66.5935 4.45667 66.7648 3.66839 67.1013 2.94921C67.4378 2.23004 67.9306 1.59898 68.542 1.10424C69.1535 0.609495 69.8675 0.264154 70.6295 0.0945812C71.3914 -0.0749919 72.1812 -0.0643091 72.9385 0.125813C73.6958 0.315935 74.4006 0.680468 74.999 1.19157C75.5975 1.70268 76.0738 2.34684 76.3916 3.07487C76.7093 3.80289 76.8601 4.59553 76.8325 5.39224ZM71.739 6.80101C72.0083 6.80414 72.2754 6.75207 72.5247 6.64789C72.7739 6.54371 73.0002 6.38952 73.1901 6.19443C73.3801 5.99935 73.5299 5.76732 73.6307 5.51206C73.7315 5.2568 73.7812 4.98347 73.777 4.70823C73.777 4.1545 73.5618 3.62346 73.1788 3.23192C72.7958 2.84037 72.2764 2.62041 71.7347 2.62041C71.1931 2.62041 70.6737 2.84037 70.2907 3.23192C69.9077 3.62346 69.6925 4.1545 69.6925 4.70823C69.6972 5.26171 69.9142 5.79118 70.297 6.18262C70.6798 6.57405 71.1977 6.79612 71.739 6.80101Z" fill="#3EFAF4"/>
<path d="M140.699 60.1807C140.714 60.4702 140.667 60.7594 140.56 61.0282C140.454 61.297 140.292 61.5387 140.084 61.7365C139.614 62.1303 139.017 62.3299 138.41 62.2961H135.564V54.5699H138.334C138.928 54.5323 139.516 54.7221 139.981 55.1024C140.181 55.2938 140.338 55.5279 140.439 55.788C140.541 56.0481 140.585 56.3279 140.569 56.6076C140.574 56.9864 140.466 57.3577 140.26 57.6721C140.059 57.985 139.757 58.2156 139.407 58.3236C139.794 58.4299 140.133 58.6698 140.367 59.0027C140.594 59.3512 140.709 59.7625 140.699 60.1807ZM136.372 57.9844H138.258C138.655 58.0077 139.048 57.8911 139.371 57.654C139.511 57.5323 139.622 57.3781 139.693 57.2042C139.764 57.0303 139.793 56.8417 139.779 56.6538C139.792 56.4654 139.763 56.2765 139.694 56.101C139.626 55.9255 139.52 55.7679 139.384 55.6399C139.062 55.3956 138.666 55.2752 138.266 55.3001H136.372V57.9844ZM139.9 60.1229C139.913 59.9273 139.882 59.7313 139.811 59.5494C139.739 59.3675 139.629 59.2044 139.487 59.0721C139.153 58.8138 138.739 58.6867 138.32 58.7141H136.372V61.5642H138.312C138.733 61.5901 139.149 61.4596 139.483 61.1968C139.627 61.0601 139.739 60.8924 139.811 60.7058C139.883 60.5193 139.914 60.3186 139.901 60.1185L139.9 60.1229Z" fill="white"/>
<path d="M143.94 62.9113C143.847 63.2377 143.657 63.5265 143.397 63.7374C143.132 63.9206 142.818 64.0123 142.499 63.999H142.167V63.3007H142.439C142.655 63.3171 142.869 63.259 143.049 63.1355C143.206 62.9858 143.321 62.7955 143.381 62.5847L143.494 62.2361L141.586 56.6187H142.398L143.853 61.1291L145.312 56.6187H146.088L143.94 62.9113Z" fill="white"/>
<path d="M150.282 58.0197H153.519V58.7583H150.278V62.2962H149.479V54.5688H154.066V55.3074H150.277L150.282 58.0197Z" fill="white"/>
<path d="M155.592 56.6202V57.3818C155.731 57.1148 155.943 56.8948 156.202 56.7485C156.464 56.6083 156.755 56.5373 157.051 56.542C157.186 56.5408 157.321 56.5515 157.455 56.5739V57.3356C157.271 57.2737 157.078 57.2426 156.885 57.2436C156.711 57.2387 156.539 57.2723 156.379 57.342C156.22 57.4117 156.077 57.5158 155.96 57.6473C155.716 57.9387 155.589 58.3145 155.606 58.6981V62.2955H154.865V56.6202H155.592Z" fill="white"/>
<path d="M162.351 58.4327V62.2966H161.597V61.6908C161.438 61.9151 161.222 62.0912 160.973 62.2002C160.688 62.316 160.383 62.3707 160.076 62.361C159.592 62.388 159.115 62.2383 158.729 61.9386C158.564 61.7807 158.435 61.5872 158.352 61.3721C158.269 61.1571 158.233 60.9258 158.249 60.6951C158.237 60.4714 158.275 60.248 158.36 60.0414C158.444 59.8348 158.574 59.6505 158.738 59.5022C159.128 59.1911 159.617 59.0377 160.111 59.071H161.597V58.4239C161.608 58.2561 161.584 58.0878 161.528 57.9299C161.471 57.7719 161.383 57.6277 161.27 57.5063C161.01 57.282 160.675 57.17 160.336 57.1941C160.016 57.1734 159.699 57.2658 159.439 57.4557C159.333 57.5411 159.248 57.6509 159.192 57.7761C159.136 57.9013 159.11 58.0384 159.115 58.176V58.1942H158.411V58.1391C158.402 57.9177 158.444 57.6973 158.533 57.4951C158.622 57.2929 158.755 57.1145 158.922 56.9738C159.356 56.6815 159.865 56.5295 160.384 56.5377C160.903 56.5458 161.407 56.7137 161.831 57.0195C162.013 57.2025 162.154 57.4236 162.243 57.6676C162.333 57.9116 162.37 58.1727 162.351 58.4327ZM161.597 60.369V59.6305H160.206C159.389 59.6305 158.98 59.9791 158.98 60.6813C158.98 61.3835 159.384 61.7459 160.196 61.7459C160.582 61.7802 160.966 61.6582 161.265 61.4061C161.506 61.1191 161.625 60.7461 161.597 60.369Z" fill="white"/>
<path d="M163.844 60.0292V58.8639C163.815 58.5437 163.852 58.221 163.954 57.9167C164.055 57.6123 164.218 57.3331 164.431 57.0971C164.862 56.7077 165.424 56.5067 165.998 56.5376C166.545 56.5064 167.083 56.6902 167.502 57.0514C167.686 57.2264 167.83 57.4402 167.926 57.6779C168.021 57.9156 168.065 58.1716 168.054 58.4283V58.4833H167.332V58.4283C167.341 58.2634 167.314 58.0985 167.254 57.9454C167.193 57.7923 167.1 57.6548 166.981 57.5427C166.713 57.3226 166.374 57.2114 166.03 57.2304C165.837 57.2185 165.644 57.2455 165.461 57.3101C165.279 57.3746 165.111 57.4754 164.966 57.6066C164.822 57.7875 164.714 57.9957 164.649 58.2193C164.583 58.4429 164.561 58.6774 164.585 58.9096V59.9835C164.536 60.4561 164.672 60.9291 164.962 61.3003C165.252 61.564 165.633 61.6993 166.021 61.6765C166.369 61.6971 166.711 61.5841 166.981 61.3598C167.101 61.2481 167.194 61.1106 167.254 60.9574C167.315 60.8042 167.341 60.6392 167.332 60.4742V60.4191H168.054V60.4649C168.065 60.722 168.021 60.9785 167.925 61.2163C167.829 61.4542 167.683 61.6677 167.498 61.8417C167.083 62.2 166.55 62.3837 166.007 62.3555C165.431 62.3865 164.865 62.1892 164.427 61.8048C164.215 61.5664 164.053 61.2854 163.953 60.9797C163.852 60.6741 163.815 60.3504 163.844 60.0292Z" fill="white"/>
<path d="M170.678 60.851C170.678 61.3649 170.911 61.622 171.387 61.622H171.835V62.2967H171.274C171.093 62.307 170.912 62.2789 170.742 62.2141C170.572 62.1494 170.417 62.0495 170.287 61.9205C170.163 61.7804 170.068 61.6167 170.006 61.4387C169.944 61.2607 169.918 61.072 169.928 60.8835V57.2123H169.062V56.6115H169.928V55.3123L170.686 54.9543V56.6109H171.92V57.2118H170.673L170.678 60.851Z" fill="white"/>
<path d="M177.029 58.4327V62.2966H176.293V61.6908C176.134 61.9151 175.918 62.0912 175.669 62.2002C175.384 62.316 175.079 62.3707 174.772 62.361C174.288 62.388 173.811 62.2383 173.425 61.9386C173.26 61.7806 173.131 61.5871 173.048 61.3721C172.965 61.157 172.93 60.9258 172.945 60.6951C172.934 60.4719 172.972 60.2489 173.056 60.0426C173.139 59.8362 173.267 59.6516 173.43 59.5022C173.823 59.192 174.313 59.0387 174.808 59.071H176.307V58.4239C176.318 58.2561 176.294 58.0878 176.238 57.9299C176.181 57.7719 176.093 57.6277 175.98 57.5063C175.72 57.282 175.385 57.17 175.046 57.1941C174.726 57.1727 174.409 57.2651 174.149 57.4557C174.043 57.5411 173.958 57.6509 173.902 57.7761C173.846 57.9013 173.82 58.0384 173.825 58.176V58.1942H173.089V58.1391C173.081 57.9177 173.123 57.6973 173.212 57.4951C173.3 57.2929 173.434 57.1145 173.601 56.9738C174.034 56.6815 174.544 56.5295 175.063 56.5377C175.582 56.5458 176.086 56.7137 176.51 57.0195C176.692 57.2024 176.833 57.4235 176.922 57.6675C177.012 57.9116 177.049 58.1726 177.031 58.4327H177.029ZM176.284 60.369V59.6305H174.892C174.076 59.6305 173.667 59.9791 173.667 60.6813C173.667 61.3835 174.071 61.7459 174.883 61.7459C175.272 61.7827 175.66 61.6606 175.961 61.4061C176.198 61.1176 176.314 60.7448 176.284 60.369Z" fill="white"/>
<path d="M178.654 60.8048V54.5688H179.399V60.7591C179.38 60.9863 179.439 61.2132 179.565 61.4012C179.634 61.4727 179.718 61.5275 179.811 61.5616C179.903 61.5957 180.002 61.6083 180.1 61.5984H180.548V62.2956H180.023C179.837 62.3078 179.65 62.2802 179.475 62.2146C179.299 62.1489 179.139 62.0468 179.004 61.9145C178.753 61.6043 178.627 61.2069 178.654 60.8048Z" fill="white"/>
</g>
<defs>
<clipPath id="clip0_2019_27092">
<rect width="183" height="64" fill="white"/>
</clipPath>
</defs>
</svg>
